<mxfile host="app.diagrams.net" modified="2020-03-30T06:12:45.963Z" agent="5.0 (Windows NT 10.0; Win64; x64) AppleWebKit/537.36 (KHTML, like Gecko) Chrome/80.0.3987.149 Safari/537.36" etag="2u6ygb7d_p3QW_H0oW6B" version="12.9.4" type="github">
  <diagram id="vx01uoFtrj__LdfE2VaE" name="Page-1">
    <mxGraphModel dx="1564" dy="1945" grid="1" gridSize="10" guides="1" tooltips="1" connect="1" arrows="1" fold="1" page="1" pageScale="1" pageWidth="827" pageHeight="1169" math="0" shadow="0">
      <root>
        <mxCell id="0" />
        <mxCell id="1" parent="0" />
        <mxCell id="1bapABZ5rgCXsiwJLi8P-3" value="Prana" style="html=1;whiteSpace=wrap;;fontSize=11;fontColor=#000000;spacing=5;strokeOpacity=100;strokeWidth=1.2;" vertex="1" parent="1">
          <mxGeometry x="20" y="144" width="96" height="72" as="geometry" />
        </mxCell>
        <mxCell id="1bapABZ5rgCXsiwJLi8P-4" value="Engineering &amp; Homologation" style="html=1;whiteSpace=wrap;;fontSize=11;fontColor=#000000;spacing=5;strokeOpacity=100;strokeWidth=1.2;" vertex="1" parent="1">
          <mxGeometry x="300" y="144" width="96" height="72" as="geometry" />
        </mxCell>
        <mxCell id="1bapABZ5rgCXsiwJLi8P-5" value="Assembly section" style="html=1;whiteSpace=wrap;;fontSize=11;fontColor=#000000;spacing=5;strokeOpacity=100;strokeWidth=1.2;" vertex="1" parent="1">
          <mxGeometry x="434" y="372" width="96" height="72" as="geometry" />
        </mxCell>
        <mxCell id="1bapABZ5rgCXsiwJLi8P-6" value="Accounts" style="html=1;whiteSpace=wrap;;fontSize=11;fontColor=#000000;spacing=5;strokeOpacity=100;strokeWidth=1.2;" vertex="1" parent="1">
          <mxGeometry x="432" y="492" width="96" height="72" as="geometry" />
        </mxCell>
        <mxCell id="1bapABZ5rgCXsiwJLi8P-7" value="operations" style="html=1;whiteSpace=wrap;;fontSize=11;fontColor=#000000;spacing=5;strokeOpacity=100;strokeWidth=1.2;" vertex="1" parent="1">
          <mxGeometry x="300" y="648" width="96" height="72" as="geometry" />
        </mxCell>
        <mxCell id="1bapABZ5rgCXsiwJLi8P-8" value="Purchase Orders" style="html=1;whiteSpace=wrap;;fontSize=11;fontColor=#000000;spacing=5;strokeOpacity=100;strokeWidth=1.2;" vertex="1" parent="1">
          <mxGeometry x="568" y="648" width="96" height="72" as="geometry" />
        </mxCell>
        <mxCell id="1bapABZ5rgCXsiwJLi8P-9" value="" style="html=1;jettySize=18;fontSize=11;strokeOpacity=100;strokeWidth=1.2;rounded=1;arcSize=0;edgeStyle=orthogonalEdgeStyle;startArrow=none;endArrow=block;endFill=1;exitX=1.00625;exitY=0.5;exitPerimeter=1;entryX=-0.00625;entryY=0.5;entryPerimeter=1;" edge="1" parent="1" source="1bapABZ5rgCXsiwJLi8P-3" target="1bapABZ5rgCXsiwJLi8P-4">
          <mxGeometry width="100" height="100" relative="1" as="geometry" />
        </mxCell>
        <mxCell id="1bapABZ5rgCXsiwJLi8P-10" value="" style="html=1;jettySize=18;fontSize=11;strokeOpacity=100;strokeWidth=1.2;rounded=1;arcSize=0;edgeStyle=elbowEdgeStyle;startArrow=none;endArrow=block;endFill=1;entryX=-0.00625;entryY=0.5;entryPerimeter=1;" edge="1" parent="1" target="1bapABZ5rgCXsiwJLi8P-5">
          <mxGeometry width="100" height="100" relative="1" as="geometry">
            <mxPoint x="204" y="180" as="sourcePoint" />
            <Array as="points">
              <mxPoint x="250" y="220" />
            </Array>
          </mxGeometry>
        </mxCell>
        <mxCell id="1bapABZ5rgCXsiwJLi8P-11" value="" style="html=1;jettySize=18;fontSize=11;strokeOpacity=100;strokeWidth=1.2;rounded=1;arcSize=0;edgeStyle=elbowEdgeStyle;startArrow=none;endArrow=block;endFill=1;entryX=-0.00625;entryY=0.5;entryPerimeter=1;" edge="1" parent="1" target="1bapABZ5rgCXsiwJLi8P-6">
          <mxGeometry width="100" height="100" relative="1" as="geometry">
            <mxPoint x="204" y="180" as="sourcePoint" />
            <Array as="points">
              <mxPoint x="204" y="190" />
            </Array>
          </mxGeometry>
        </mxCell>
        <mxCell id="1bapABZ5rgCXsiwJLi8P-12" value="" style="html=1;jettySize=18;fontSize=11;strokeOpacity=100;strokeWidth=1.2;rounded=1;arcSize=0;edgeStyle=elbowEdgeStyle;startArrow=none;endArrow=block;endFill=1;entryX=-0.00625;entryY=0.5;entryPerimeter=1;" edge="1" parent="1" target="1bapABZ5rgCXsiwJLi8P-7">
          <mxGeometry width="100" height="100" relative="1" as="geometry">
            <mxPoint x="202" y="180" as="sourcePoint" />
            <Array as="points">
              <mxPoint x="170" y="210" />
            </Array>
          </mxGeometry>
        </mxCell>
        <mxCell id="1bapABZ5rgCXsiwJLi8P-13" value="Quotation" style="html=1;whiteSpace=wrap;;fontSize=11;fontColor=#000000;spacing=5;strokeOpacity=100;strokeWidth=1.2;" vertex="1" parent="1">
          <mxGeometry x="568" y="744" width="96" height="72" as="geometry" />
        </mxCell>
        <mxCell id="1bapABZ5rgCXsiwJLi8P-14" value="Payment confirmation receipt" style="html=1;whiteSpace=wrap;;fontSize=11;fontColor=#000000;spacing=5;strokeOpacity=100;strokeWidth=1.2;" vertex="1" parent="1">
          <mxGeometry x="708" y="780" width="96" height="72" as="geometry" />
        </mxCell>
        <mxCell id="1bapABZ5rgCXsiwJLi8P-15" value="Bills for financial year/month wise 1. Vouchers 2. Pending payments in each week reports" style="html=1;whiteSpace=wrap;;fontSize=11;fontColor=#000000;spacing=5;strokeOpacity=100;strokeWidth=1.2;" vertex="1" parent="1">
          <mxGeometry x="568" y="486" width="96" height="84" as="geometry" />
        </mxCell>
        <mxCell id="1bapABZ5rgCXsiwJLi8P-16" value="" style="html=1;jettySize=18;fontSize=11;strokeOpacity=100;strokeWidth=1.2;rounded=1;arcSize=0;edgeStyle=orthogonalEdgeStyle;startArrow=none;endArrow=block;endFill=1;exitX=1.00625;exitY=0.5;exitPerimeter=1;entryX=-0.006250000000000089;entryY=0.5;entryPerimeter=1;" edge="1" parent="1" source="1bapABZ5rgCXsiwJLi8P-6" target="1bapABZ5rgCXsiwJLi8P-15">
          <mxGeometry width="100" height="100" relative="1" as="geometry" />
        </mxCell>
        <mxCell id="1bapABZ5rgCXsiwJLi8P-17" value="" style="html=1;jettySize=18;fontSize=11;strokeOpacity=100;strokeWidth=1.2;rounded=1;arcSize=0;edgeStyle=orthogonalEdgeStyle;startArrow=none;endArrow=block;endFill=1;exitX=1.00625;exitY=0.5;exitPerimeter=1;entryX=-0.00625;entryY=0.5;entryPerimeter=1;" edge="1" parent="1" source="1bapABZ5rgCXsiwJLi8P-7" target="1bapABZ5rgCXsiwJLi8P-8">
          <mxGeometry width="100" height="100" relative="1" as="geometry" />
        </mxCell>
        <mxCell id="1bapABZ5rgCXsiwJLi8P-18" value="" style="html=1;jettySize=18;fontSize=11;strokeOpacity=100;strokeWidth=1.2;rounded=1;arcSize=0;edgeStyle=orthogonalEdgeStyle;startArrow=none;endArrow=block;endFill=1;exitX=1.00625;exitY=0.5;exitPerimeter=1;entryX=-0.00625;entryY=0.5;entryPerimeter=1;" edge="1" parent="1" source="1bapABZ5rgCXsiwJLi8P-7" target="1bapABZ5rgCXsiwJLi8P-13">
          <mxGeometry width="100" height="100" relative="1" as="geometry" />
        </mxCell>
        <mxCell id="1bapABZ5rgCXsiwJLi8P-19" value="" style="html=1;jettySize=18;fontSize=11;strokeOpacity=100;strokeWidth=1.2;rounded=1;arcSize=0;edgeStyle=orthogonalEdgeStyle;startArrow=none;endArrow=block;endFill=1;exitX=0.5;exitY=1.0083333333333333;exitPerimeter=1;entryX=-0.00625;entryY=0.6666666666666666;entryPerimeter=1;" edge="1" parent="1" source="1bapABZ5rgCXsiwJLi8P-20" target="1bapABZ5rgCXsiwJLi8P-14">
          <mxGeometry width="100" height="100" relative="1" as="geometry" />
        </mxCell>
        <mxCell id="1bapABZ5rgCXsiwJLi8P-20" value="Vendor data component wise" style="html=1;whiteSpace=wrap;;fontSize=11;fontColor=#000000;spacing=5;strokeOpacity=100;strokeWidth=1.2;" vertex="1" parent="1">
          <mxGeometry x="434" y="648" width="96" height="72" as="geometry" />
        </mxCell>
        <mxCell id="1bapABZ5rgCXsiwJLi8P-21" value="Torque details,&#xa;SOP &#xa;" style="html=1;whiteSpace=wrap;;fontSize=11;fontColor=#000000;spacing=5;strokeOpacity=100;strokeWidth=1.2;" vertex="1" parent="1">
          <mxGeometry x="566" y="360" width="96" height="96" as="geometry" />
        </mxCell>
        <mxCell id="1bapABZ5rgCXsiwJLi8P-22" value="Quality" style="html=1;whiteSpace=wrap;;fontSize=11;fontColor=#000000;spacing=5;strokeOpacity=100;strokeWidth=1.2;" vertex="1" parent="1">
          <mxGeometry x="698" y="372" width="96" height="72" as="geometry" />
        </mxCell>
        <mxCell id="1bapABZ5rgCXsiwJLi8P-23" value="Component / vehicle" style="html=1;whiteSpace=wrap;;fontSize=11;fontColor=#000000;spacing=5;strokeOpacity=100;strokeWidth=1.2;" vertex="1" parent="1">
          <mxGeometry x="300" y="252" width="96" height="72" as="geometry" />
        </mxCell>
        <mxCell id="1bapABZ5rgCXsiwJLi8P-24" value="Finished recipets " style="html=1;whiteSpace=wrap;;fontSize=11;fontColor=#000000;spacing=5;strokeOpacity=100;strokeWidth=1.2;" vertex="1" parent="1">
          <mxGeometry x="830" y="372" width="96" height="72" as="geometry" />
        </mxCell>
        <mxCell id="1bapABZ5rgCXsiwJLi8P-25" value="Full vehicle" style="html=1;whiteSpace=wrap;;fontSize=11;fontColor=#000000;spacing=5;strokeOpacity=100;strokeWidth=1.2;" vertex="1" parent="1">
          <mxGeometry x="432" y="144" width="96" height="72" as="geometry" />
        </mxCell>
        <mxCell id="1bapABZ5rgCXsiwJLi8P-26" value="BRAKE SYSTEM" style="html=1;whiteSpace=wrap;;fontSize=11;fontColor=#000000;spacing=5;strokeOpacity=100;strokeWidth=1.2;" vertex="1" parent="1">
          <mxGeometry x="695" y="144" width="59" height="72" as="geometry" />
        </mxCell>
        <mxCell id="1bapABZ5rgCXsiwJLi8P-27" value="All the components in indvidual folder" style="html=1;whiteSpace=wrap;;fontSize=11;fontColor=#000000;spacing=5;strokeOpacity=100;strokeWidth=1.2;" vertex="1" parent="1">
          <mxGeometry x="823" y="144" width="67" height="72" as="geometry" />
        </mxCell>
        <mxCell id="1bapABZ5rgCXsiwJLi8P-28" value="Vendor profile, catalogue, Best selected models and why" style="html=1;whiteSpace=wrap;;fontSize=11;fontColor=#000000;spacing=5;strokeOpacity=100;strokeWidth=1.2;" vertex="1" parent="1">
          <mxGeometry x="432" y="258" width="96" height="72" as="geometry" />
        </mxCell>
        <mxCell id="1bapABZ5rgCXsiwJLi8P-29" value="NEW PRODUCT DEVLOPMENT" style="html=1;whiteSpace=wrap;;fontSize=11;fontColor=#000000;spacing=5;strokeOpacity=100;strokeWidth=1.2;" vertex="1" parent="1">
          <mxGeometry x="170" y="7" width="96" height="72" as="geometry" />
        </mxCell>
        <mxCell id="1bapABZ5rgCXsiwJLi8P-30" value="HELMET " style="html=1;whiteSpace=wrap;;fontSize=11;fontColor=#000000;spacing=5;strokeOpacity=100;strokeWidth=1.2;" vertex="1" parent="1">
          <mxGeometry x="432" y="19" width="96" height="72" as="geometry" />
        </mxCell>
        <mxCell id="1bapABZ5rgCXsiwJLi8P-31" value="3W- MOBILITY" style="html=1;whiteSpace=wrap;;fontSize=11;fontColor=#000000;spacing=5;strokeOpacity=100;strokeWidth=1.2;" vertex="1" parent="1">
          <mxGeometry x="691" y="19" width="79" height="72" as="geometry" />
        </mxCell>
        <mxCell id="1bapABZ5rgCXsiwJLi8P-32" value="PRANA" style="html=1;whiteSpace=wrap;;fontSize=11;fontColor=#000000;spacing=5;strokeOpacity=100;strokeWidth=1.2;" vertex="1" parent="1">
          <mxGeometry x="820" y="19" width="72" height="72" as="geometry" />
        </mxCell>
        <mxCell id="1bapABZ5rgCXsiwJLi8P-33" value="All the files should contain  1. conditions tested 2. referal documents   3. Contents and Ideation " style="html=1;whiteSpace=wrap;;fontSize=11;fontColor=#000000;spacing=5;strokeOpacity=100;strokeWidth=1.2;" vertex="1" parent="1">
          <mxGeometry x="936" y="19" width="95" height="103" as="geometry" />
        </mxCell>
        <mxCell id="1bapABZ5rgCXsiwJLi8P-34" value="Manufacturing " style="html=1;whiteSpace=wrap;;fontSize=11;fontColor=#000000;spacing=5;strokeOpacity=100;strokeWidth=1.2;" vertex="1" parent="1">
          <mxGeometry x="300" y="372" width="96" height="72" as="geometry" />
        </mxCell>
        <mxCell id="1bapABZ5rgCXsiwJLi8P-35" value="Sales &amp; Marketing  " style="html=1;whiteSpace=wrap;;fontSize=11;fontColor=#000000;spacing=5;strokeOpacity=100;strokeWidth=1.2;" vertex="1" parent="1">
          <mxGeometry x="300" y="996" width="96" height="72" as="geometry" />
        </mxCell>
        <mxCell id="1bapABZ5rgCXsiwJLi8P-36" value="DM404" style="html=1;whiteSpace=wrap;;fontSize=11;fontColor=#000000;spacing=5;strokeOpacity=100;strokeWidth=1.2;" vertex="1" parent="1">
          <mxGeometry x="446" y="1120" width="96" height="72" as="geometry" />
        </mxCell>
        <mxCell id="1bapABZ5rgCXsiwJLi8P-37" value="scoial media" style="html=1;whiteSpace=wrap;;fontSize=11;fontColor=#000000;spacing=5;strokeOpacity=100;strokeWidth=1.2;" vertex="1" parent="1">
          <mxGeometry x="576" y="1120" width="96" height="72" as="geometry" />
        </mxCell>
        <mxCell id="1bapABZ5rgCXsiwJLi8P-38" value="ORM" style="html=1;whiteSpace=wrap;;fontSize=11;fontColor=#000000;spacing=5;strokeOpacity=100;strokeWidth=1.2;" vertex="1" parent="1">
          <mxGeometry x="708" y="1120" width="96" height="72" as="geometry" />
        </mxCell>
        <mxCell id="1bapABZ5rgCXsiwJLi8P-39" value="creatives" style="html=1;whiteSpace=wrap;;fontSize=11;fontColor=#000000;spacing=5;strokeOpacity=100;strokeWidth=1.2;" vertex="1" parent="1">
          <mxGeometry x="840" y="1120" width="96" height="72" as="geometry" />
        </mxCell>
        <mxCell id="1bapABZ5rgCXsiwJLi8P-40" value="Patent " style="html=1;whiteSpace=wrap;;fontSize=11;fontColor=#000000;spacing=5;strokeOpacity=100;strokeWidth=1.2;" vertex="1" parent="1">
          <mxGeometry x="432" y="-90" width="96" height="72" as="geometry" />
        </mxCell>
        <mxCell id="1bapABZ5rgCXsiwJLi8P-41" value="List of patents" style="html=1;whiteSpace=wrap;;fontSize=11;fontColor=#000000;spacing=5;strokeOpacity=100;strokeWidth=1.2;" vertex="1" parent="1">
          <mxGeometry x="691" y="-80" width="63" height="72" as="geometry" />
        </mxCell>
        <mxCell id="1bapABZ5rgCXsiwJLi8P-42" value="forms submitted to patent office" style="html=1;whiteSpace=wrap;;fontSize=11;fontColor=#000000;spacing=5;strokeOpacity=100;strokeWidth=1.2;" vertex="1" parent="1">
          <mxGeometry x="820" y="-80" width="65" height="72" as="geometry" />
        </mxCell>
        <mxCell id="1bapABZ5rgCXsiwJLi8P-43" value="Process for  submiission" style="html=1;whiteSpace=wrap;;fontSize=11;fontColor=#000000;spacing=5;strokeOpacity=100;strokeWidth=1.2;" vertex="1" parent="1">
          <mxGeometry x="930" y="-90" width="94" height="72" as="geometry" />
        </mxCell>
        <mxCell id="1bapABZ5rgCXsiwJLi8P-44" value="Stores" style="html=1;whiteSpace=wrap;;fontSize=11;fontColor=#000000;spacing=5;strokeOpacity=100;strokeWidth=1.2;" vertex="1" parent="1">
          <mxGeometry x="300" y="888" width="96" height="72" as="geometry" />
        </mxCell>
        <mxCell id="1bapABZ5rgCXsiwJLi8P-45" value="Backup  of all the reports if there is a server down" style="html=1;whiteSpace=wrap;;fontSize=11;fontColor=#000000;spacing=5;strokeOpacity=100;strokeWidth=1.2;" vertex="1" parent="1">
          <mxGeometry x="432" y="888" width="96" height="72" as="geometry" />
        </mxCell>
        <mxCell id="1bapABZ5rgCXsiwJLi8P-46" value="" style="html=1;jettySize=18;fontSize=11;strokeOpacity=100;strokeWidth=1.2;rounded=1;arcSize=0;edgeStyle=orthogonalEdgeStyle;startArrow=none;endArrow=none;exitX=1.00625;exitY=0.5;exitPerimeter=1;entryX=-0.00625;entryY=0.5;entryPerimeter=1;" edge="1" parent="1" source="1bapABZ5rgCXsiwJLi8P-45" target="1bapABZ5rgCXsiwJLi8P-47">
          <mxGeometry width="100" height="100" relative="1" as="geometry" />
        </mxCell>
        <mxCell id="1bapABZ5rgCXsiwJLi8P-47" value="Process definition " style="html=1;whiteSpace=wrap;;fontSize=11;fontColor=#000000;spacing=5;strokeOpacity=100;strokeWidth=1.2;" vertex="1" parent="1">
          <mxGeometry x="568" y="888" width="96" height="72" as="geometry" />
        </mxCell>
        <mxCell id="1bapABZ5rgCXsiwJLi8P-48" value="" style="html=1;jettySize=18;fontSize=11;strokeOpacity=100;strokeWidth=1.2;rounded=1;arcSize=0;edgeStyle=orthogonalEdgeStyle;startArrow=none;endArrow=block;endFill=1;exitX=1.00625;exitY=0.5;exitPerimeter=1;entryX=-0.00625;entryY=0.5;entryPerimeter=1;" edge="1" parent="1" source="1bapABZ5rgCXsiwJLi8P-35" target="1bapABZ5rgCXsiwJLi8P-36">
          <mxGeometry width="100" height="100" relative="1" as="geometry" />
        </mxCell>
        <mxCell id="1bapABZ5rgCXsiwJLi8P-49" value="Quality" style="html=1;whiteSpace=wrap;;fontSize=11;fontColor=#000000;spacing=5;strokeOpacity=100;strokeWidth=1.2;" vertex="1" parent="1">
          <mxGeometry x="300" y="1224" width="96" height="72" as="geometry" />
        </mxCell>
        <mxCell id="1bapABZ5rgCXsiwJLi8P-50" value="Process definiton" style="html=1;whiteSpace=wrap;;fontSize=11;fontColor=#000000;spacing=5;strokeOpacity=100;strokeWidth=1.2;" vertex="1" parent="1">
          <mxGeometry x="552" y="1224" width="96" height="72" as="geometry" />
        </mxCell>
        <mxCell id="1bapABZ5rgCXsiwJLi8P-51" value="Component &amp; Vehicle wise quality folder" style="html=1;whiteSpace=wrap;;fontSize=11;fontColor=#000000;spacing=5;strokeOpacity=100;strokeWidth=1.2;" vertex="1" parent="1">
          <mxGeometry x="434" y="1224" width="96" height="72" as="geometry" />
        </mxCell>
        <mxCell id="1bapABZ5rgCXsiwJLi8P-52" value="" style="html=1;whiteSpace=wrap;;fontSize=11;spacing=5;strokeOpacity=100;strokeWidth=1.2;" vertex="1" parent="1">
          <mxGeometry x="684" y="492" width="96" height="72" as="geometry" />
        </mxCell>
        <mxCell id="1bapABZ5rgCXsiwJLi8P-53" value="HR" style="html=1;whiteSpace=wrap;;fontSize=11;fontColor=#000000;spacing=5;strokeOpacity=100;strokeWidth=1.2;" vertex="1" parent="1">
          <mxGeometry x="300" y="1356" width="96" height="72" as="geometry" />
        </mxCell>
        <mxCell id="1bapABZ5rgCXsiwJLi8P-54" value="Employee wise data with all " style="html=1;whiteSpace=wrap;;fontSize=11;fontColor=#000000;spacing=5;strokeOpacity=100;strokeWidth=1.2;" vertex="1" parent="1">
          <mxGeometry x="434" y="1356" width="96" height="72" as="geometry" />
        </mxCell>
        <mxCell id="1bapABZ5rgCXsiwJLi8P-55" value="Appraisal data" style="html=1;whiteSpace=wrap;;fontSize=11;fontColor=#000000;spacing=5;strokeOpacity=100;strokeWidth=1.2;" vertex="1" parent="1">
          <mxGeometry x="552" y="1356" width="96" height="72" as="geometry" />
        </mxCell>
        <mxCell id="1bapABZ5rgCXsiwJLi8P-56" value="factory approval files &amp; legal" style="html=1;whiteSpace=wrap;;fontSize=11;fontColor=#000000;spacing=5;strokeOpacity=100;strokeWidth=1.2;" vertex="1" parent="1">
          <mxGeometry x="672" y="1356" width="96" height="72" as="geometry" />
        </mxCell>
        <mxCell id="1bapABZ5rgCXsiwJLi8P-57" value="IT " style="html=1;whiteSpace=wrap;;fontSize=11;fontColor=#000000;spacing=5;strokeOpacity=100;strokeWidth=1.2;" vertex="1" parent="1">
          <mxGeometry x="300" y="1476" width="96" height="72" as="geometry" />
        </mxCell>
        <mxCell id="1bapABZ5rgCXsiwJLi8P-58" value="Backup of all the codes &amp; Files" style="html=1;whiteSpace=wrap;;fontSize=11;fontColor=#000000;spacing=5;strokeOpacity=100;strokeWidth=1.2;" vertex="1" parent="1">
          <mxGeometry x="432" y="1476" width="96" height="72" as="geometry" />
        </mxCell>
        <mxCell id="1bapABZ5rgCXsiwJLi8P-59" value="ERP installation - Project manager" style="html=1;whiteSpace=wrap;;fontSize=11;fontColor=#000000;spacing=5;strokeOpacity=100;strokeWidth=1.2;" vertex="1" parent="1">
          <mxGeometry x="564" y="1476" width="96" height="72" as="geometry" />
        </mxCell>
        <mxCell id="1bapABZ5rgCXsiwJLi8P-60" value="E-commerce Installation Manager" style="html=1;whiteSpace=wrap;;fontSize=11;fontColor=#000000;spacing=5;strokeOpacity=100;strokeWidth=1.2;" vertex="1" parent="1">
          <mxGeometry x="684" y="1476" width="96" height="72" as="geometry" />
        </mxCell>
        <mxCell id="1bapABZ5rgCXsiwJLi8P-61" value="Finance" style="html=1;whiteSpace=wrap;;fontSize=11;fontColor=#000000;spacing=5;strokeOpacity=100;strokeWidth=1.2;" vertex="1" parent="1">
          <mxGeometry x="300" y="492" width="96" height="72" as="geometry" />
        </mxCell>
        <mxCell id="1bapABZ5rgCXsiwJLi8P-62" value="Content and Ideation" style="html=1;whiteSpace=wrap;;fontSize=11;fontColor=#000000;spacing=5;strokeOpacity=100;strokeWidth=1.2;" vertex="1" parent="1">
          <mxGeometry x="980" y="1120" width="96" height="72" as="geometry" />
        </mxCell>
        <mxCell id="1bapABZ5rgCXsiwJLi8P-63" value="General Plan" style="rounded=0;whiteSpace=wrap;html=1;" vertex="1" parent="1">
          <mxGeometry x="434" y="1002" width="120" height="60" as="geometry" />
        </mxCell>
        <mxCell id="1bapABZ5rgCXsiwJLi8P-64" value="&lt;h1&gt;List of Files&lt;/h1&gt;&lt;div&gt;1.&amp;nbsp;&lt;/div&gt;&lt;div&gt;&lt;br&gt;&lt;/div&gt;" style="text;html=1;strokeColor=none;fillColor=none;spacing=5;spacingTop=-20;whiteSpace=wrap;overflow=hidden;rounded=0;" vertex="1" parent="1">
          <mxGeometry x="841" y="980" width="190" height="120" as="geometry" />
        </mxCell>
      </root>
    </mxGraphModel>
  </diagram>
</mxfile>
